
<svg version="1.1" id="Capa_1" xmlns="http://www.w3.org/2000/svg" xmlns:xlink="http://www.w3.org/1999/xlink" x="0px" y="0px"
	 viewBox="0 0 100 100" enable-background="new 0 0 100 100" xml:space="preserve">
<g>
	<path d="M39.9,85.4c-0.3-0.7,0.4-1.6-0.7-2.3c-2.3-1.8-4.3-3.9-6.1-6.2c-0.8-1-2.1-1.1-3-0.2c-1,1.1-1.9,2.3-2.4,3.8
		c-0.6,1.9-0.2,2.9,1.3,4c1.4,1,1.4,1.2,0,2.1c-1.4,1-1.9,2.1-1.3,3.8c0.5,1.6,1.6,2.9,2.7,4.2c0.3,0.4,0.6,0.4,1.1,0.2
		c2.9-1,5.8-2.1,8.5-3.7c0.8-0.5,1.2-1,0.6-1.9C39.9,88.1,39.9,86.8,39.9,85.4z"/>
	<path d="M69.8,86.4c-1.3-0.9-1.3-0.9,0-1.9c1.7-1.2,2-2.6,1.2-4.5c-0.5-1.3-1.4-2.3-2.3-3.4c-0.3-0.4-0.8-0.6-1.3-0.5
		c-0.7,0-1.2,0.2-1.7,0.6c-1.8,2.2-3.6,4.4-5.9,6c-0.7,0.4-0.9,0.9-0.8,1.7c0.2,1.7,0,3.3-0.7,4.8c-0.4,0.9-0.1,1.4,0.7,1.8
		c1.8,1,3.7,1.9,5.7,2.7c3.8,1.5,4,1.4,6-2.1c0.2-0.2,0.3-0.4,0.4-0.6C71.9,89.1,71.5,87.6,69.8,86.4z"/>
	<path d="M55.6,85.1c-1.8,0.7-3.7,1-5.6,1.1c-2.4,0.1-4.6-0.2-6.8-1.1c-0.9-0.3-1.2-0.2-1.1,0.8c0.2,3.8,3.4,6.9,7,6.9
		c0.2,0,0.4,0,0.7,0c0.2,0,0.5-0.1,0.7-0.1c-0.1-0.4-0.5-0.4-0.7-0.4c-0.7-0.1-1.4-0.4-1.9-0.8c-0.4-0.4-1.1-0.5-1.2-1.3
		c0.5,0,0.9,0.4,1.4,0.6c0.1,0,0.2,0.1,0.3,0.1c3.8,1.9,8.1-0.6,8.4-4.9C56.8,84.7,56.8,84.7,55.6,85.1z"/>
	<path d="M34.4,14.7c0.2,0,0.4,0.1,0.6,0.1c-0.2-0.2-0.3-0.4-0.5-0.5c-2-1.2-4.1-1.8-6.4-1.1c-0.3,0-0.6,0.2-0.7,0
		c-0.1-0.1,0.3-0.3,0.5-0.4c2.2-1.1,4.3-0.9,6.4,0.1c3.2,1.4,5.9,3.6,8.7,5.6c0.5,0.4,1.1,1,1.8,0.9c1.2-0.2,1.3,0.4,1.2,1.2
		c0,0.4,0,0.8,0.6,0.5c1.8-0.9,3.5-0.9,5.3,0c0.3,0.1,0.7,0.1,0.6-0.3c-0.3-1.4,0.5-1.6,1.6-1.6c0.5,0,0.9-0.4,1.3-0.7
		c3.1-2,6.5-3.5,9.7-5.3c1.6-0.9,3.4-1,5.2-0.5c0.2,0,0.4,0.1,0.5,0.3c-0.1,0-0.3,0.1-0.5,0.1c-1.1,0-2.2,0-3.3,0.5
		c-0.1,0.1-0.4,0.1-0.4,0.3c0.1,0.3,0.3,0.1,0.5,0.1c3.3-0.1,6.3,0.8,8.9,2.8c0.2,0.1,0.4,0.4,0.6,0.3c0.1-0.1,0-0.5,0-0.7
		C76,13,75.4,9.7,74.8,6.3c-0.1-0.7-0.4-1.2-1.2-1.4C72,4.5,70.4,4,68.8,3.7C62.4,2.4,56,2.3,49.6,2.4c-2.2,0-4.5,0-6.7,0
		C37,2.5,31.2,3.1,25.3,5.1c-0.9,0.3-1.3,0.8-1.5,1.7c-0.6,3.3-1.2,6.6-1.8,9.9c0,0.2,0,0.5,0,0.7c0.2-0.1,0.4-0.2,0.6-0.3
		C26.2,14.3,30.1,13.7,34.4,14.7z"/>
	<path d="M32.7,17.5c-2.9-0.8-5.8-0.8-8.7,0.2c-0.2,0-0.4,0.2-0.6,0.3c0.1,0.2,0.4,0.1,0.6,0.1c3.8-0.1,7.6,0.1,11.4,0.6
		c0.3,0.1,0.5,0.2,0.7-0.2c-0.3,0-0.5-0.1-0.7-0.2c0,0,0,0.1,0,0.1C34.5,18.1,33.6,17.7,32.7,17.5z"/>
	<path d="M73.6,17.3c-3.5-0.8-6.8-0.2-10.1,1.1c-0.2,0.1-0.5,0.2-0.6,0.2c0.1,0.2,0.4,0.1,0.6,0.1c0.4-0.1,0.9-0.2,1.3-0.2
		c3.4-0.2,6.7-0.6,10.1-0.4c0.2,0.1,0.5,0,0.5,0c0-0.3-0.3-0.3-0.5-0.4C74.5,17.5,74,17.4,73.6,17.3z"/>
	<path d="M77.9,45.4c-1.5,0.3-2.1,1-2.5,2.4C73,55.2,69.7,62.2,65,68.5c-0.9,1.2-1.9,2.3-2.9,3.4c-0.1,0.2-0.3,0.3-0.5,0.2
		c-0.3-0.1-0.1-0.4,0-0.6c0.3-0.6,0.7-1.1,1.1-1.6c1.5-2.1,2.8-4.4,3.9-6.8c0.1-0.1,0.4-0.4,0.1-0.6c-0.2-0.2-0.4,0.1-0.6,0.2
		c-0.9,0.4-1.7,0.8-2.6,1.1c-0.1,0-0.5,0-0.3-0.3c0.4-0.3,0.7-0.5,1-0.7c1.8-1.2,3.5-2.5,4.4-4.6c0.8-1.8,1.4-3.7,1.9-5.7
		c0-0.2,0.2-0.4,0.1-0.7c-0.2,0.2-0.4,0.3-0.5,0.5c-0.6,1.1-1.2,2.1-1.8,3.2c-0.7,1.4-1.7,2.2-3,3c-4.8,2.9-10.1,4.1-15.5,5
		c-0.8,0.1-1.5,0-2.3-0.2c-0.7-0.1-1.5-0.3-2.2-0.4c-4.2-0.6-8.1-1.9-11.7-4c-1.4-0.8-2.5-1.9-3.3-3.3c-0.9-1.7-1.8-3.5-3-5.1
		c0.5,1.7,1.1,3.4,1.5,5.1c0.8,3.1,2.4,5.5,5.1,7.2c0.3,0.1,0.8,0.3,0.5,0.7c-0.3,0.4-0.6,0-0.9-0.1c-0.6-0.2-1.1-0.5-1.7-0.8
		c0,0.8,0.5,1.4,0.8,2c1.2,2.3,2.5,4.6,4.1,6.7c0.2,0.3,0.7,0.7,0.3,1s-0.7-0.2-0.9-0.5c-0.7-0.6-1.2-1.3-1.8-2
		c-5-6.3-8.4-13.5-10.9-21.2c-0.6-1.8-1.5-2.8-3.3-3.1c-0.1,0-0.2-0.1-0.3-0.1c-0.7-0.3-0.8,0.1-0.7,0.6c0.2,1.9,0.7,3.8,1.3,5.6
		c1.8,5.3,4.6,9.9,7.8,14.3c3.1,4.2,5.8,8.6,9.4,12.4c2.4,2.5,5.1,4.5,8.6,5.2c1.3,0.3,1.3,0.2,0.9-1c-1-3.2-1.9-6.4-0.4-9.9
		c0.8-2-0.4-4.3-2.4-5.5c-0.7-0.4-1.4-0.8-1.8-1.5c0.1-0.1,0.2-0.3,0.3-0.3c-0.1,0-0.1-0.1-0.2-0.1c0-0.1,0.1-0.2,0.2-0.3
		c3.9,1.2,7.8,1.6,11.7,0.4c0.4-0.1,1.2-0.6,1.4-0.1c0.3,0.6-0.6,0.8-1,1.2c-0.7,0.6-1.7,0.8-2.2,1.7c-1,1.7-1.2,3.4-0.4,5.2
		c0.7,1.7,0.8,3.4,0.3,5.1c-0.3,0.9-0.5,1.8-0.8,2.8c-0.2,0.6-0.8,1.5-0.4,1.9c0.5,0.5,1.4,0,2.1-0.2c3.9-1,6.7-3.4,9.1-6.4
		c4.1-5,7.8-10.3,11.3-15.8c2.7-4.2,4.7-8.7,5.7-13.7C80,44.8,80,44.9,77.9,45.4z"/>
	<path d="M62.4,55.3c1.5,0,2.6-0.7,3.3-1.9c0.9-1.6,1.9-3.1,2.8-4.7c0.2-0.3,0.6-0.5,0.3-0.9c-0.1-0.2-0.5-0.1-0.8-0.1
		c-4.4,0.1-8.6-0.6-12.6-2.2c-0.6-0.2-0.9-0.6-1.1-1.3c-0.7-3.4-1.5-6.7-2.3-10.1c-0.3-1.1-2-2.6-2.6-2.2c-0.9,0.6-1.9,1-2.2,2.4
		c-0.6,3.1-1.4,6.1-2,9.2c-0.3,1.1-0.8,1.8-2,2.2c-4,1.4-8,2.1-12.1,1.9c-0.7-0.1-1.1,0-0.6,0.8c1.1,1.7,2.1,3.4,3.1,5.1
		c0.7,1.1,1.7,1.7,3,1.7c1,0,2.1-0.2,3.1,0c2.1,0.4,3.4-0.6,4.4-2.3c0.8-1.4,0.9-1.6-0.6-2.3c-1.4-0.7-2.7-1.6-3.8-2.8
		c-0.2-0.2-0.5-0.4-0.3-0.6c0.2-0.3,0.5,0,0.7,0.1c1,0.4,1.9,0.8,2.9,1.2c0.3,0.1,0.6,0.2,0.6-0.4c0-0.4-0.2-1,0.2-1.1
		c0.5-0.1,0.6,0.6,0.8,0.9c0.4,0.6,0.7,1.2,1.2,1.8c0.4,0.6,1,1,1.8,1.2c3.3,0.6,4.7,0,6.5-2.9c0-0.1,0.1-0.3,0.2-0.4
		c0.2-0.2,0.2-0.8,0.7-0.6c0.3,0.1,0.1,0.5,0.1,0.8c-0.1,0.9,0.3,0.9,0.9,0.6c0.9-0.4,1.7-0.8,2.6-1.1c0.2-0.1,0.5-0.4,0.7,0
		c-1.1,1.6-2.6,2.5-4.2,3.6c-0.4,0.3-1.1,0.6-0.7,1.2c0.6,1,1.4,2.1,2.3,3c0.6,0.6,1.6,0.2,2.4,0.2C60.2,55.3,61.3,55.3,62.4,55.3z"
		/>
	<path d="M56.2,59.9c-0.4,0-0.8-0.1-1.2,0c-1.8,0.3-3.1-0.4-4-2c-0.2-0.4-0.6-0.8-0.9-1.2c-0.7-1-0.8-1.1-1.4,0.1
		c-1.3,2.4-3.1,3.6-5.9,3.1h-0.1c-0.2-0.4-0.6-0.3-0.9-0.3c-0.5,0-1,0-1.5,0c0.4,0.4,0.9,0.1,1.3,0.3c0.3,0.1,0.6,0.2,1,0.1
		c0.9,0.1,1.9,0.3,2.8,0.3c1.4,0,2.8,0.8,4.2,0.5C51.8,60.4,54,60.2,56.2,59.9c0.2,0.1,0.5,0.1,0.7,0c0.5-0.1,0.9-0.2,1.4-0.3
		c-0.5-0.1-1-0.1-1.5,0C56.5,59.6,56.3,59.7,56.2,59.9z"/>
	<path d="M85.4,23.5c-3.6-1.7-7.3-2.9-11.4-3c-5.3-0.1-10.5,0.6-15.7,1.1c-1.2,0.1-2.4,0-3.4,0.9c-1.1,1.1-2.4,1.3-3.8,0.6
		c-1-0.5-2-0.5-3.1,0c-1.4,0.7-2.7,0.4-3.9-0.6c-0.5-0.3-1-0.6-1.6-0.7c-5.3-0.6-10.5-1.2-15.7-1.3c-4.7-0.1-9.1,0.9-13.3,3.1
		c-0.5,0.3-1.1,0.5-0.8,1.3c0.3,0.7,0.4,1.6,1.5,1.5c1.2-0.2,1.5,0.5,1.7,1.5c1.1,4.6,2.2,9.1,3.3,13.7c0.2,0.8,0.5,1.3,1.4,1.6
		c1.2,0.3,2.4,0.7,3.6,1c5.7,1.3,11.4,1.4,17.1-0.6c0.9-0.3,1.3-0.7,1.5-1.6c0.6-2.8,1.4-5.6,1.9-8.5c0.5-2.3,2.2-3.2,3.9-4.2
		c0.3-0.2,0.7-0.2,1-0.2c1.7,0.2,4.2,2.4,4.6,4.1c0.7,2.9,1.4,5.8,2,8.8c0.2,0.8,0.5,1.2,1.3,1.5c3.7,1.3,7.6,1.8,11.5,1.5
		c2.9-0.2,5.8-0.8,8.6-1.6c1.3-0.4,2-1,2.3-2.3c1-4.4,2.1-8.7,3.1-13.1c0.2-1,0.5-1.7,1.8-1.6c1.1,0.1,1.3-0.9,1.5-1.6
		C86.6,24,85.9,23.7,85.4,23.5z M39.2,32.5c0,0.1-0.3-0.1-0.4-0.3C36.2,29,33,28.8,29.5,30c-1.8,0.6-3.5,1.4-5.2,2.1
		c-0.2,0.1-0.4,0.1-0.5,0.3c0,0.3,0.3,0.4,0.5,0.5c1.6,0.8,3.3,1.4,5,1.7c2.9,0.6,5.8,0.3,8.6-0.6c1.1-0.3,1.1-0.3,0.9,0.8
		c-0.1,0.6-0.4,1-0.8,1.3c-1.5,1.1-3.1,1.7-4.8,2.2c-0.3,0.1-0.9,0-0.8,0.4c0.1,0.4,0.7,0.2,1,0.2c1.3-0.1,2.6-0.3,3.9-0.7
		c0.3-0.1,0.8-0.6,0.9,0c0.1,0.4,0.3,1.2-0.6,1.4c-1.9,0.4-3.7,0.7-5.4,0.6c-2.7,0-5.1-0.3-7.5-0.9c-0.6-0.2-1.1-0.4-1.2-1.1
		c-0.4-2-0.9-3.9-1.4-5.9c-0.1-0.3-0.3-0.7,0.3-0.7c1.8-0.1,3.4-1,5-1.7c1.8-0.8,3.6-1.3,5.6-1.3c2.3,0,4.2,0.9,5.8,2.5
		c0.2,0.2,0.4,0.4,0.5,0.7C39.4,32,39.3,32.3,39.2,32.5z M40,28.4c-0.1,0.3-0.1,0.7-0.2,1c-0.1,0.6-0.3,0.7-0.8,0.3
		c-3.3-2.7-6.9-2.8-10.7-1.4c-1.9,0.7-3.7,1.5-5.5,2.6c-0.7,0.4-1.1,0.5-1.3-0.5c-0.1-0.8-0.4-1.5-0.5-2.3c-0.4-1.5-0.4-1.5,1.1-1.8
		c1.8-0.5,3.7-0.7,5.7-0.6c3.8,0.1,7.5,0.6,11.2,1.2C39.9,27.1,40.4,27.4,40,28.4z M76.8,33.1c-0.5,1.6-0.8,3.1-1.2,4.7
		c-0.2,0.8-0.5,1.2-1.4,1.4c-2.4,0.6-4.9,1.1-7.4,1c-1.7,0-3.5-0.1-5.1-0.5c-0.5-0.1-0.9-0.2-1-0.9c0-0.6-0.2-1.1,0.8-0.7
		c1.4,0.6,3,0.7,4.5,0.8c0.3,0,0.8,0.2,0.9-0.2c0-0.3-0.4-0.2-0.7-0.3c-1.6-0.4-3.1-0.9-4.5-1.8c-0.4-0.3-0.8-0.5-1.2-0.9
		c-0.5-0.5-0.7-1.3-0.5-1.8s0.9,0,1.3,0.2c4.6,1.4,9,0.8,13.2-1.2c0.3-0.1,0.7-0.2,0.7-0.5c0-0.4-0.5-0.3-0.7-0.4
		c-1.7-0.7-3.3-1.5-5.1-2c-3.5-1.1-6.7-0.9-9.2,2.3c-0.1,0.2-0.2,0.3-0.4,0.4c0-0.2-0.1-0.5-0.1-0.7c0-0.4,0.4-0.6,0.6-0.8
		c2.3-2.3,5.1-2.9,8.2-2.3c1.7,0.3,3.3,1.1,4.8,1.8c0.8,0.4,1.6,0.8,2.5,0.8C77.2,31.5,77.1,32.1,76.8,33.1z M78,27.7
		c-0.3,0.8-0.4,1.6-0.6,2.4c-0.3,1.2-0.3,1.2-1.5,0.6c-2.3-1.3-4.7-2.5-7.3-3.1c-3.2-0.7-6.1-0.2-8.6,2c-0.7,0.6-0.7,0.4-0.9-0.4
		c-0.5-2.1-0.5-2.1,1.7-2.5c3.5-0.6,7-0.9,10.6-1.1c1.9,0,3.8,0.2,5.7,0.6C78,26.4,78.5,26.6,78,27.7z"/>
</g>
</svg>
