<?xml version="1.0" encoding="utf-8"?>
<!-- Generator: Adobe Illustrator 24.2.1, SVG Export Plug-In . SVG Version: 6.00 Build 0)  -->
<svg version="1.1" id="Capa_1" xmlns="http://www.w3.org/2000/svg" xmlns:xlink="http://www.w3.org/1999/xlink" x="0px" y="0px"
	 width="100px" height="100px" viewBox="0 0 100 100" enable-background="new 0 0 100 100" xml:space="preserve">
<g>
	<path d="M60.2,0.6c1.7,0.8,2.3,2.1,2.1,3.9c-0.1,1.6,0,3.2,0,4.8c0,1.8-1.2,3.1-2.9,3.1c-1.7,0-2.9-1.3-2.9-3.1
		c0-1.6,0.1-3.2,0-4.8c-0.1-1.8,0.5-3.1,2.1-3.9C59.2,0.6,59.7,0.6,60.2,0.6z"/>
	<path d="M67.9,46.2c3,0,5.8,0,8.6,0c3.2,0,6.4-0.1,9.5,0.2c6.3,0.6,9.5,8.4,5.8,13.4c-0.5,0.6-0.5,1,0,1.7c2.2,2.9,2.1,7.1-0.1,10
		c-0.4,0.6-0.4,0.9,0,1.5c3.4,4.5,1.4,11.1-3.8,13.1c-0.3,0.1-0.5,0.2-0.9,0.3c0.6,1.8,0.8,3.6,0.3,5.3c-1.1,4-4.3,6.5-8.4,6.5
		c-8.4,0.1-16.8,0-25.2,0c-3.3,0-6.6-0.7-9.7-1.8c-2.9-1-5.7-1.9-8.6-2.9c-0.6-0.2-0.8-0.1-1.1,0.4c-1.7,2.7-4.1,4.2-7.3,4.3
		c-5.8,0.1-11.6,0-17.4,0c-1.9,0-3-1.3-3-3.3c0-15,0-30.1,0-45.1c0-2.1,0-4.2,0-6.3c0-2.1,1.2-3.2,3.2-3.2c5.5,0,11.1,0,16.6,0
		c3.7,0,6.5,1.6,8.2,4.9c0.3,0.6,0.6,0.5,1.1,0.4c3.5-1.2,6.1-3.5,8.5-6.2c4.1-4.9,6.7-10.6,8-16.8c0.2-1,0.5-2.1,0.8-3.1
		c0.5-1.7,1.5-2.5,3.3-2.6c2.6-0.1,5.2-0.1,7.6,1.2c4.1,2.1,6.3,5.5,6.5,10.1c0.2,5.8-0.6,11.6-2.1,17.2
		C68.1,45.7,68,45.9,67.9,46.2z M35.5,69.6c0,5.7,0,11.4,0,17.1c0,0.7,0.2,1,0.9,1.2c3.3,1,6.5,2.2,9.8,3.2c2.5,0.8,5.2,1.4,7.9,1.4
		c8.3,0,16.5,0,24.8,0c1.7,0,2.9-1.2,3-2.8c0.1-1.6-1.1-2.9-2.8-3c-1.8-0.2-3-1.4-2.9-3.1c0.1-1.6,1.4-2.7,3.1-2.7
		c1.8,0,3.5,0,5.3,0c1.8,0,3.1-1.2,3.1-2.9c0-1.7-1.3-2.9-3.2-2.9c-1.7,0-3.5,0-5.2,0c-1.9,0-3.2-1.2-3.2-2.9c0-1.7,1.3-2.9,3.3-2.9
		c1.6,0,3.3,0,4.9,0c2.1,0,3.4-1.1,3.4-2.9c0-1.7-1.3-2.9-3.4-2.9c-1.7,0-3.4,0-5.1,0c-1.8,0-3.1-1.2-3.1-2.9c0-1.7,1.3-2.9,3.1-2.9
		c1.6,0,3.2,0,4.8,0c2.3,0,3.7-1.1,3.7-2.9c0-1.8-1.3-2.9-3.7-2.9c-9.3,0-18.7,0-28,0c-1.8,0-3.1-1.2-3.1-2.9c0-1.7,1.3-2.9,3.1-2.9
		c1.6,0,3.2,0,4.8,0c0.7,0,1-0.2,1.2-0.8c1.9-5.6,2.7-11.4,2.4-17.3c-0.1-2.6-2.1-4.6-4.6-5.1c-1.7-0.3-1.7-0.3-2.1,1.3
		c-1.7,7.7-5,14.5-10.4,20.3c-3.1,3.4-6.7,6-11.3,7c-0.7,0.2-0.6,0.6-0.6,1C35.5,58.3,35.5,63.9,35.5,69.6z M12.4,46.2
		c0,15.5,0,30.9,0,46.4c4.6,0,9.1,0,13.7,0c2.6,0,3.7-1,3.7-3.7c0-13,0-26,0-39c0-0.2,0-0.5,0-0.7c-0.1-1.8-1.2-3-3-3
		c-1,0-2.1,0-3.1,0C19.9,46.2,16.2,46.2,12.4,46.2z"/>
	<path d="M38,11.4c0.2-1.2,0.7-2.1,1.7-2.6c1-0.5,2.1-0.5,3,0.3c1.6,1.5,3.2,3.1,4.7,4.7c1,1.1,0.7,2.8-0.3,3.8
		c-1,1-2.7,1.2-3.8,0.2c-1.6-1.4-3.1-3-4.6-4.6C38.4,12.7,38.3,12,38,11.4z"/>
	<path d="M77.8,8.3C79.1,8.5,80,9,80.5,10c0.5,1,0.5,2.1-0.3,3c-1.5,1.6-3.1,3.2-4.7,4.7c-1.1,1-2.8,0.7-3.8-0.3
		c-1-1-1.2-2.6-0.2-3.7c1.5-1.6,3.1-3.2,4.7-4.7C76.6,8.7,77.3,8.6,77.8,8.3z"/>
	<path d="M21,81c1.6,0,2.9,1.3,2.9,2.9c0,1.6-1.3,2.9-2.9,2.9c-1.6,0-2.9-1.3-2.9-2.9C18.1,82.3,19.4,81,21,81z"/>
</g>
</svg>
